# xmcd CD database file generated by LOLA_Freedb v0.9beta0
# 
# Track frame offsets:
#      150
#      16443
#      30104
#      53351
#      68613
#      89498
#      109298
#      127982
#      141557
#      154738
#      171796
# 
# Disc length: 2390 seconds
# 
# Revision: 0 
# Processed by: cddbd v1.5.2PL0 Copyright (c) Steve Scherf et al.
# Submitted via: LOLA_Freedb v0.9beta0
# 
DISCID=8709540b
DTITLE=Kenny Rogers - The Gambler
DYEAR=1978
DGENRE=
TTITLE0=Kenny Rogers - The Gambler
TTITLE1=Kenny Rogers - I Wish That I Could Hurt That Way Again
TTITLE2=
TTITLE3=
TTITLE4=
TTITLE5=
TTITLE6=
TTITLE7=
TTITLE8=
TTITLE9=
TTITLE10=
EXTD=
EXTT0=
EXTT1=
EXTT2=
EXTT3=
EXTT4=
EXTT5=
EXTT6=
EXTT7=
EXTT8=
EXTT9=
EXTT10=
PLAYORDER=
